<svg width="19" height="18" viewBox="0 0 19 18" fill="none" xmlns="http://www.w3.org/2000/svg">
<g clip-path="url(#clip0)">
<path d="M16.4359 9.61122L14.9405 5.13549C14.8404 4.83501 14.6552 4.56987 14.4074 4.37205C14.1596 4.17422 13.8597 4.05218 13.5439 4.02065V2.36908H15.1907C15.2635 2.36907 15.3333 2.34022 15.3848 2.28887C15.4363 2.23751 15.4652 2.16787 15.4652 2.09524V0.726074H14.9162V1.82141H3.9376V0.726074H3.38867V2.09524C3.38868 2.16787 3.41759 2.23751 3.46907 2.28887C3.52054 2.34022 3.59035 2.36907 3.66314 2.36908H5.30993V11.6794C5.30994 11.752 5.33885 11.8217 5.39033 11.873C5.4418 11.9244 5.51161 11.9532 5.5844 11.9532H8.69218L10.1194 15.5131H9.42692C9.35413 15.5131 9.28432 15.5419 9.23285 15.5933C9.18138 15.6446 9.15246 15.7143 9.15246 15.7869V17.1561H9.70139V16.0608H15.4652V17.1561H16.0141V15.7869C16.0141 15.7143 15.9852 15.6446 15.9337 15.5933C15.8822 15.5419 15.8124 15.5131 15.7396 15.5131H15.5224L16.4912 10.4382C16.5438 10.1624 16.5247 9.87768 16.4359 9.61122ZM11.6049 2.36908C11.5382 2.89843 11.2801 3.38528 10.8791 3.73822C10.478 4.09116 9.96168 4.28592 9.42692 4.28592C8.89217 4.28592 8.37581 4.09116 7.97479 3.73822C7.57377 3.38528 7.31567 2.89843 7.24896 2.36908H11.6049ZM6.69602 2.36908C6.76406 3.04452 7.08114 3.67066 7.58575 4.12605C8.09035 4.58143 8.74651 4.83358 9.42692 4.83358C10.1073 4.83358 10.7635 4.58143 11.2681 4.12605C11.7727 3.67066 12.0898 3.04452 12.1578 2.36908H12.995V8.55383L12.4323 7.99239C12.1624 7.7232 11.7964 7.57198 11.4148 7.572C11.0332 7.57202 10.6672 7.72327 10.3974 7.99249C10.1276 8.2617 9.97596 8.62683 9.97594 9.00756C9.97592 9.38829 10.1275 9.75344 10.3973 10.0227L10.8198 10.4442C10.6675 10.7446 10.5721 11.0706 10.5386 11.4056H8.3153C8.25111 10.7774 7.97168 10.1906 7.52417 9.74411C7.07666 9.29763 6.48847 9.01885 5.85887 8.9548V2.36908H6.69602ZM11.7834 11.4056H11.0911C11.1147 11.2174 11.1627 11.0331 11.2339 10.8573L11.7834 11.4056ZM5.85887 9.50647C6.34217 9.56796 6.79134 9.78781 7.13585 10.1315C7.48037 10.4753 7.70074 10.9234 7.76236 11.4056H5.85887V9.50647ZM15.952 10.3358L14.9636 15.5131H10.7106L9.28337 11.9532H11.8694C11.6233 12.3244 11.4638 12.746 11.4026 13.1868C11.3413 13.6276 11.38 14.0766 11.5158 14.5005L12.039 14.335C11.9026 13.9092 11.8866 13.454 11.9926 13.0197C12.0987 12.5853 12.3227 12.1886 12.6401 11.8731C12.6916 11.8217 12.7205 11.752 12.7205 11.6794C12.7205 11.6068 12.6916 11.5371 12.6401 11.4858L10.7855 9.63539C10.6186 9.46887 10.5248 9.24303 10.5248 9.00753C10.5248 8.77204 10.6186 8.54619 10.7855 8.37968C10.9524 8.21316 11.1788 8.11961 11.4148 8.11961C11.6508 8.11961 11.8772 8.21316 12.0441 8.37968L13.0754 9.40856L13.8988 10.2301L14.2869 9.84277L13.5439 9.10146V4.57218C13.7438 4.60246 13.9313 4.68727 14.0859 4.81725C14.2404 4.94723 14.356 5.11732 14.4197 5.30871L15.9151 9.78444C15.9743 9.96206 15.987 10.1518 15.952 10.3358Z" fill="#3EA35A"/>
</g>
<defs>
<clipPath id="clip0">
<rect width="17.5658" height="17.5253" fill="white" transform="translate(0.917969 0.178467)"/>
</clipPath>
</defs>
</svg>
