<svg width="15" height="16" viewBox="0 0 15 16" fill="none" xmlns="http://www.w3.org/2000/svg">
<path d="M7.54883 3.24951V8.58516H9.27248C10.7459 8.58516 11.9403 7.39073 11.9403 5.91734C11.9403 4.44394 10.7459 3.24951 9.27248 3.24951H7.54883Z" stroke="#53A875" stroke-width="0.731909" stroke-linecap="round" stroke-linejoin="round"/>
<line x1="6.45189" y1="5.17018" x2="13.0391" y2="5.17018" stroke="#53A875" stroke-width="0.731909" stroke-linecap="round" stroke-linejoin="round"/>
<line x1="6.45189" y1="6.69459" x2="13.0391" y2="6.69459" stroke="#53A875" stroke-width="0.731909" stroke-linecap="round" stroke-linejoin="round"/>
<g clip-path="url(#clip0)">
<path d="M12.7894 9.9578L10.3637 10.8842C10.3744 10.8179 10.3804 10.7502 10.3804 10.6816C10.3804 10.0511 9.91879 9.53819 9.35119 9.53819H7.68489C7.64066 9.53819 7.59704 9.52557 7.55854 9.50145L6.19911 8.65208C5.93034 8.48381 5.62488 8.39482 5.3158 8.39482H3.49169C3.38555 8.06219 3.09949 7.82324 2.76408 7.82324H1.2202C1.07808 7.82324 0.962891 7.9512 0.962891 8.10909V13.2541C0.962891 13.412 1.07808 13.54 1.2202 13.54H2.76408C3.09185 13.54 3.37289 13.3112 3.48446 12.9899C3.77574 13.0301 4.11276 13.1257 4.32454 13.2669L5.67021 14.1638C6.18001 14.5037 6.76369 14.6834 7.35832 14.6834C7.82953 14.6834 8.28606 14.5735 8.71535 14.3569L13.518 12.0077C14.0499 11.768 14.3125 11.0591 14.0085 10.4342C13.7848 9.97443 13.261 9.76988 12.7894 9.9578ZM3.02139 12.6838C3.02079 12.8408 2.9055 12.9683 2.76408 12.9683H1.47752V8.39493H2.76408C2.9059 8.39493 3.02139 8.52311 3.02139 8.68077V12.6838ZM13.3225 11.479C13.3197 11.4801 13.317 11.4815 13.3143 11.4827C13.3143 11.4827 8.50457 13.8353 8.50367 13.8358C8.14132 14.0189 7.75595 14.1117 7.35832 14.1117C6.85696 14.1117 6.36485 13.9603 5.93506 13.6736L4.58929 12.7767C4.30122 12.5848 3.88872 12.4677 3.53602 12.4208V8.96661H5.3158C5.53653 8.96661 5.75464 9.03004 5.94672 9.15029L7.30616 9.99967C7.42134 10.0718 7.55241 10.11 7.68489 10.11H9.35119C9.63494 10.11 9.86582 10.3664 9.86582 10.6817C9.86582 10.9958 9.63484 11.2534 9.35119 11.2534H6.73544C6.59332 11.2534 6.47813 11.3813 6.47813 11.5392C6.47813 11.697 6.59332 11.8249 6.73544 11.8249H9.35119C9.51995 11.8249 9.6861 11.7784 9.83355 11.6911C9.83355 11.6911 12.961 10.4968 12.9622 10.4963C13.1928 10.4039 13.4535 10.4959 13.5557 10.706C13.709 11.021 13.5823 11.3635 13.3225 11.479Z" fill="#53A875"/>
</g>
<defs>
<clipPath id="clip0">
<rect width="14.6382" height="15.2447" fill="white" transform="translate(0.230469 0.200684)"/>
</clipPath>
</defs>
</svg>
