<svg width="19" height="19" viewBox="0 0 19 19" fill="none" xmlns="http://www.w3.org/2000/svg">
<g clip-path="url(#clip0)">
<path d="M18.0264 13.3392C17.6988 12.8588 17.1429 12.7415 16.5391 13.025L16.2191 13.1655C16.7237 12.0924 16.7863 10.8962 16.5351 9.76634C16.2466 8.4686 15.5498 7.21143 14.464 6.02974C14.368 5.92524 14.2052 5.91819 14.1005 6.01399C13.9957 6.10977 13.9887 6.27212 14.0847 6.37665C15.1087 7.49102 15.7641 8.66888 16.0328 9.87748C16.3158 11.1506 16.1511 12.4635 15.4289 13.5126L12.2265 14.9194L12.2292 14.5586C12.2292 14.5495 12.2288 14.5403 12.2279 14.5313C12.154 13.7896 11.5857 13.1987 10.8461 13.0943C10.8439 13.094 10.8417 13.0937 10.8395 13.0935L7.99323 12.7665C6.89876 12.6111 6.61688 11.9567 5.13463 11.5836C5.03222 10.7166 5.16873 9.79344 5.5429 8.86799C6.10641 7.47425 7.20884 6.12014 8.73713 4.94153C9.30675 5.34447 11.8481 5.39462 12.4168 4.87481C12.7081 5.09556 12.9862 5.32304 13.2452 5.5533C13.2942 5.59691 13.3554 5.61834 13.4163 5.61834C13.4871 5.61834 13.5576 5.58935 13.6084 5.53242C13.7029 5.42659 13.6935 5.26434 13.5875 5.17004C13.3035 4.91767 12.9981 4.66865 12.6778 4.42799C12.7528 4.11041 12.6478 3.73871 12.3706 3.51745C13.1761 2.29848 13.4104 1.50064 13.0868 1.08263C12.8645 0.795481 12.588 0.930241 12.4699 0.987815C12.2697 1.0853 12.1606 1.09043 11.9764 0.970221C11.6251 0.740851 11.2558 0.733458 10.8931 0.970221C10.7066 1.09197 10.5597 1.09197 10.3733 0.970221C10.0219 0.740851 9.65275 0.733458 9.29001 0.970221C9.10372 1.09187 8.99417 1.08434 8.79717 0.986651C8.67922 0.928153 8.403 0.791168 8.17931 1.07835C7.86296 1.48458 8.07461 2.25727 8.82578 3.43479C8.77978 3.45961 8.73593 3.48874 8.695 3.52201C8.39625 3.20724 7.90677 2.87894 7.19892 2.95781C6.61181 3.02336 6.17887 2.82979 5.91902 2.65591C5.801 2.57704 5.64119 2.60846 5.56208 2.72614C5.48296 2.84389 5.51449 3.00333 5.63248 3.08226C5.96372 3.30383 6.51423 3.55049 7.25601 3.46796C7.80288 3.40676 8.17396 3.68559 8.40496 3.96935C8.4018 3.9803 8.39889 3.99132 8.39618 4.00235C8.19914 4.00543 7.90468 4.02377 7.5804 4.09107C6.8005 4.25294 6.22158 4.62271 5.90619 5.16052C5.83445 5.28286 5.87569 5.44011 5.99831 5.51172C6.12096 5.58329 6.27854 5.54211 6.35027 5.41978C6.8194 4.61987 7.96451 4.52205 8.41933 4.51592C8.42129 4.52157 8.42359 4.52715 8.42565 4.53276C6.80259 5.78189 5.67262 7.17491 5.06577 8.67586C4.68221 9.62459 4.52899 10.5751 4.60676 11.4783C4.36005 11.4419 4.1105 11.4224 3.85974 11.4207V11.2654C3.85974 10.8547 3.52482 10.5206 3.11315 10.5206H1.93213C1.52046 10.5206 1.18555 10.8548 1.18555 11.2654V17.2434C1.18555 17.6541 1.52046 17.9882 1.93213 17.9882H3.11312C3.52479 17.9882 3.8597 17.6541 3.8597 17.2434V17.1702L6.43594 18.1269C6.78215 18.2554 7.14499 18.3207 7.51439 18.3207H11.353C11.9399 18.3207 12.5121 18.155 13.0078 17.8416C18.1286 14.6029 17.8176 14.8044 17.8472 14.7782C18.2597 14.4129 18.3367 13.7943 18.0264 13.3392ZM11.934 4.57065C10.9932 4.80766 10.0784 4.80766 9.13744 4.57065C8.73367 4.46882 8.85066 3.75035 9.28459 3.85892C10.1264 4.06978 10.9449 4.06978 11.7868 3.85892C12.2132 3.75213 12.3442 4.46721 11.934 4.57065ZM8.56219 1.44344C8.56422 1.44443 8.56624 1.44546 8.56816 1.44642C8.91636 1.61907 9.22146 1.62845 9.57171 1.39983C10.01 1.11357 10.0576 1.57255 10.6331 1.57255C10.9102 1.57255 11.0631 1.47274 11.1748 1.39983C11.3613 1.27804 11.5082 1.27811 11.6947 1.39983C12.0465 1.62951 12.3442 1.61818 12.7025 1.44577C12.7555 1.63615 12.6357 2.2037 11.8728 3.3369C11.494 3.33046 10.9442 3.70168 9.38793 3.35613C8.62669 2.20829 8.50898 1.63523 8.56219 1.44344ZM17.5196 14.3817L12.7324 17.4082C12.3192 17.6694 11.8422 17.8075 11.353 17.8075H7.51442C7.2065 17.8075 6.90404 17.7531 6.61544 17.646L3.8597 16.6226V13.8584C3.8597 13.7167 3.74453 13.6018 3.60246 13.6018C3.46039 13.6018 3.34522 13.7167 3.34522 13.8584V17.2435C3.34522 17.3712 3.24109 17.475 3.11315 17.475H1.93213C1.80416 17.475 1.70007 17.3711 1.70007 17.2435V11.2656C1.70007 11.1379 1.80416 11.0341 1.93213 11.0341H3.11312C3.24109 11.0341 3.34518 11.1379 3.34518 11.2656V12.6585C3.34518 12.8003 3.46035 12.9152 3.60242 12.9152C3.74449 12.9152 3.85967 12.8003 3.85967 12.6585V11.9341C5.98784 11.9504 6.46634 13.0695 7.92437 13.2753C7.92657 13.2756 7.92876 13.2759 7.93096 13.2761L10.7771 13.6031C11.2754 13.6748 11.659 14.0708 11.7145 14.5692L11.7109 15.0575H9.05664C8.91457 15.0575 8.79937 15.1724 8.79937 15.3142C8.79937 15.4559 8.91454 15.5709 9.05664 15.5709H11.9663C11.9988 15.5709 12.0363 15.5637 12.069 15.5495C12.0742 15.5471 16.7439 13.4959 16.7494 13.4935C17.086 13.3442 17.3929 13.3229 17.601 13.628C17.7628 13.8651 17.727 14.1857 17.5196 14.3817Z" fill="#3EA25A"/>
<path d="M10.602 12.4409C10.7441 12.4409 10.8593 12.326 10.8593 12.1842V11.7587C11.5815 11.6418 12.0029 11.0586 12.0946 10.5145C12.2091 9.83476 11.8523 9.24366 11.1855 9.00854C11.0677 8.96699 10.9593 8.92725 10.8593 8.88887V7.25231C11.1636 7.30266 11.3463 7.45981 11.3597 7.47155C11.4642 7.56636 11.6259 7.55934 11.7218 7.45563C11.8181 7.35144 11.8115 7.18905 11.7071 7.09294C11.6889 7.07623 11.3739 6.79319 10.8593 6.73401V6.36899C10.8593 6.22721 10.7441 6.1123 10.602 6.1123C10.4599 6.1123 10.3447 6.22721 10.3447 6.36899V6.75475C10.2827 6.7666 10.2192 6.78166 10.1539 6.80127C9.71749 6.9324 9.39129 7.30574 9.30253 7.77554C9.22201 8.20186 9.35749 8.61186 9.65608 8.84551C9.82752 8.97965 10.0433 9.10246 10.3447 9.23377V11.2636C10.0472 11.251 9.86409 11.1953 9.54461 10.9868C9.42573 10.9092 9.26627 10.9424 9.18849 11.0611C9.11071 11.1797 9.14403 11.3388 9.26294 11.4164C9.68291 11.6905 9.96365 11.762 10.3447 11.7768V12.1842C10.3447 12.326 10.4599 12.4409 10.602 12.4409ZM9.97363 8.4416C9.82676 8.32666 9.76332 8.10787 9.80817 7.87062C9.84975 7.6506 10.0014 7.38327 10.3023 7.29284C10.3166 7.28852 10.3307 7.28483 10.3447 7.28106V8.66751C10.1907 8.59077 10.0699 8.51694 9.97363 8.4416ZM11.0141 9.49254C11.6543 9.71828 11.6146 10.2667 11.5872 10.4294C11.5304 10.7662 11.2826 11.1259 10.8593 11.2341V9.43692C10.9094 9.4552 10.9605 9.47365 11.0141 9.49254Z" fill="#3EA25A"/>
</g>
<defs>
<clipPath id="clip0">
<rect width="17.5658" height="17.5253" fill="white" transform="translate(0.916016 0.79541)"/>
</clipPath>
</defs>
</svg>
