<svg width="19" height="19" viewBox="0 0 19 19" fill="none" xmlns="http://www.w3.org/2000/svg">
<path d="M14.8219 2.70215H4.57515C3.7667 2.70215 3.11133 3.35601 3.11133 4.16259V14.3857C3.11133 15.1923 3.7667 15.8462 4.57515 15.8462H14.8219C15.6303 15.8462 16.2857 15.1923 16.2857 14.3857V4.16259C16.2857 3.35601 15.6303 2.70215 14.8219 2.70215Z" stroke="#3EA25A" stroke-width="0.731909" stroke-linecap="round" stroke-linejoin="round"/>
<path d="M7.13693 7.81372C7.74326 7.81372 8.23479 7.32332 8.23479 6.71838C8.23479 6.11344 7.74326 5.62305 7.13693 5.62305C6.53059 5.62305 6.03906 6.11344 6.03906 6.71838C6.03906 7.32332 6.53059 7.81372 7.13693 7.81372Z" stroke="#3EA25A" stroke-width="0.731909" stroke-linecap="round" stroke-linejoin="round"/>
<path d="M16.2867 11.4646L12.6272 7.81348L4.57617 15.8459" stroke="#3EA25A" stroke-width="0.731909" stroke-linecap="round" stroke-linejoin="round"/>
</svg>
