<svg width="13" height="16" viewBox="0 0 13 16" fill="none" xmlns="http://www.w3.org/2000/svg">
<path d="M11.797 6.50877C11.797 10.9551 6.30768 14.7663 6.30768 14.7663C6.30768 14.7663 0.818359 10.9551 0.818359 6.50877C0.818359 4.99258 1.3967 3.5385 2.42614 2.4664C3.45559 1.39429 4.85182 0.791992 6.30768 0.791992C7.76354 0.791992 9.15977 1.39429 10.1892 2.4664C11.2187 3.5385 11.797 4.99258 11.797 6.50877Z" stroke="#53A875" stroke-width="0.731909" stroke-linecap="round" stroke-linejoin="round"/>
<path d="M6.30829 8.41421C7.31884 8.41421 8.13806 7.56105 8.13806 6.50862C8.13806 5.45619 7.31884 4.60303 6.30829 4.60303C5.29773 4.60303 4.47852 5.45619 4.47852 6.50862C4.47852 7.56105 5.29773 8.41421 6.30829 8.41421Z" stroke="#53A875" stroke-width="0.731909" stroke-linecap="round" stroke-linejoin="round"/>
</svg>
