<?xml version="1.0" encoding="UTF-8" standalone="no"?>
<svg
   xmlns:dc="http://purl.org/dc/elements/1.1/"
   xmlns:cc="http://creativecommons.org/ns#"
   xmlns:rdf="http://www.w3.org/1999/02/22-rdf-syntax-ns#"
   xmlns:svg="http://www.w3.org/2000/svg"
   xmlns="http://www.w3.org/2000/svg"
   id="svg4"
   version="1.1"
   fill="none"
   viewBox="0 0 20 20"
   height="20"
   width="20">
  <metadata
     id="metadata10">
    <rdf:RDF>
      <cc:Work
         rdf:about="">
        <dc:format>image/svg+xml</dc:format>
        <dc:type
           rdf:resource="http://purl.org/dc/dcmitype/StillImage" />
      </cc:Work>
    </rdf:RDF>
  </metadata>
  <defs
     id="defs8" />
  <path
     id="path2"
     fill="#121B25"
     d="M6 16C4.9 16 4.01 16.9 4.01 18C4.01 19.1 4.9 20 6 20C7.1 20 8 19.1 8 18C8 16.9 7.1 16 6 16ZM1 0C0.447716 0 0 0.447715 0 1C0 1.55228 0.447715 2 1 2H1.22513C1.69836 2 2.12927 2.27254 2.33207 2.70011L4.50278 7.27668C5.19172 8.72921 5.14022 10.4244 4.36437 11.8324L4.25 12.04C4.09 12.32 4 12.65 4 13C4 14.1 4.9 15 6 15H17C17.5523 15 18 14.5523 18 14C18 13.4477 17.5523 13 17 13H6.42C6.30058 13 6.20298 12.92 6.17687 12.8095C6.1677 12.7707 6.17489 12.7304 6.18456 12.6917C6.19481 12.6508 6.21034 12.6113 6.23076 12.5743L6.36297 12.3349C6.81768 11.5113 7.68407 11 8.62481 11H14.55C15.3 11 15.96 10.59 16.3 9.97L19.88 3.48C19.96 3.34 20 3.17 20 3C20 2.45 19.55 2 19 2H5.31494C4.64054 2 4.02686 1.61035 3.74 1C3.45314 0.389652 2.83946 0 2.16506 0H1ZM16 16C14.9 16 14.01 16.9 14.01 18C14.01 19.1 14.9 20 16 20C17.1 20 18 19.1 18 18C18 16.9 17.1 16 16 16Z" />
</svg>
