<svg width="116" height="22" viewBox="0 0 116 22" fill="none" xmlns="http://www.w3.org/2000/svg">
<path fill-rule="evenodd" clip-rule="evenodd" d="M9 16.4381C12.9463 15.946 16 12.5796 16 8.5C16 4.08172 12.4183 0.5 8 0.5C3.58172 0.5 0 4.08172 0 8.5C0 12.5796 3.05369 15.946 7 16.4381V21.5H9V16.4381Z" fill="#20222A"/>
<path d="M20 19.7481V2.70809H25.136C26.496 2.70809 27.664 2.92409 28.64 3.35609C29.632 3.78809 30.392 4.40409 30.92 5.20409C31.448 6.00409 31.712 6.95609 31.712 8.06009C31.712 8.74809 31.584 9.39609 31.328 10.0041C31.088 10.5961 30.736 11.1321 30.272 11.6121C29.824 12.0921 29.28 12.4841 28.64 12.7881L32.6 19.7481H29.36L26.072 13.5561C25.896 13.5721 25.696 13.5881 25.472 13.6041C25.264 13.6041 25.048 13.6041 24.824 13.6041C24.264 13.6041 23.616 13.5481 22.88 13.4361V19.7481H20ZM22.88 5.25209V10.8921C23.216 10.9561 23.56 11.0041 23.912 11.0361C24.28 11.0521 24.64 11.0601 24.992 11.0601C26.176 11.0601 27.096 10.8041 27.752 10.2921C28.408 9.78009 28.736 9.06809 28.736 8.15609C28.736 7.24409 28.416 6.53209 27.776 6.02009C27.136 5.50809 26.24 5.25209 25.088 5.25209H22.88Z" fill="#20222A"/>
<path d="M40.1947 20.1081C39.2667 20.1081 38.4107 19.9481 37.6267 19.6281C36.8587 19.2921 36.1867 18.8281 35.6107 18.2361C35.0347 17.6441 34.5867 16.9481 34.2667 16.1481C33.9627 15.3321 33.8107 14.4361 33.8107 13.4601C33.8107 12.5161 33.9627 11.6441 34.2667 10.8441C34.5867 10.0441 35.0187 9.34809 35.5627 8.75609C36.1227 8.14809 36.7787 7.67609 37.5307 7.34009C38.2827 7.00409 39.0987 6.83609 39.9787 6.83609C40.8587 6.83609 41.6587 6.99609 42.3787 7.31609C43.1147 7.62009 43.7467 8.06009 44.2747 8.63609C44.8187 9.21209 45.2347 9.90009 45.5227 10.7001C45.8107 11.4841 45.9547 12.3561 45.9547 13.3161V14.1321H36.6667C36.7467 14.8681 36.9387 15.5081 37.2427 16.0521C37.5627 16.5801 37.9707 16.9881 38.4667 17.2761C38.9627 17.5641 39.5387 17.7081 40.1947 17.7081C41.5067 17.7081 42.5307 17.1241 43.2667 15.9561L45.6907 16.8921C45.4027 17.5481 44.9787 18.1241 44.4187 18.6201C43.8747 19.1001 43.2347 19.4681 42.4987 19.7241C41.7787 19.9801 41.0107 20.1081 40.1947 20.1081ZM39.9787 9.06809C39.4187 9.06809 38.9147 9.19609 38.4667 9.45209C38.0347 9.70809 37.6667 10.0681 37.3627 10.5321C37.0587 10.9961 36.8507 11.5401 36.7387 12.1641H43.0747C42.9787 11.5401 42.7947 10.9961 42.5227 10.5321C42.2507 10.0681 41.8907 9.70809 41.4427 9.45209C41.0107 9.19609 40.5227 9.06809 39.9787 9.06809Z" fill="#20222A"/>
<path d="M51.3086 19.7481L47.1326 7.19609H50.0126L52.6766 16.3641L55.4846 7.19609H57.9566L60.7406 16.3641L63.4526 7.19609H66.2366L62.0366 19.7481H59.4446L56.6846 10.6281L53.9006 19.7481H51.3086Z" fill="#20222A"/>
<path d="M71.1138 3.69209C71.1138 3.99609 71.0338 4.27609 70.8738 4.53209C70.7298 4.78809 70.5298 4.99609 70.2738 5.15609C70.0178 5.30009 69.7378 5.37209 69.4338 5.37209C69.1298 5.37209 68.8498 5.30009 68.5938 5.15609C68.3378 4.99609 68.1298 4.78809 67.9698 4.53209C67.8258 4.27609 67.7538 3.99609 67.7538 3.69209C67.7538 3.38809 67.8258 3.10809 67.9698 2.85209C68.1298 2.59609 68.3378 2.39609 68.5938 2.25209C68.8498 2.09209 69.1298 2.01209 69.4338 2.01209C69.7378 2.01209 70.0178 2.09209 70.2738 2.25209C70.5298 2.39609 70.7298 2.59609 70.8738 2.85209C71.0338 3.10809 71.1138 3.38809 71.1138 3.69209ZM68.0658 19.7481V7.19609H70.8258V19.7481H68.0658Z" fill="#20222A"/>
<path d="M73.808 19.7481V1.89209H76.568V19.7481H73.808Z" fill="#20222A"/>
<path d="M84.8542 20.1081C84.0222 20.1081 83.2462 19.9401 82.5262 19.6041C81.8222 19.2681 81.2062 18.8041 80.6782 18.2121C80.1502 17.6201 79.7342 16.9241 79.4302 16.1241C79.1422 15.3241 78.9982 14.4601 78.9982 13.5321C78.9982 12.5881 79.1502 11.7081 79.4542 10.8921C79.7582 10.0761 80.1822 9.36409 80.7262 8.75609C81.2702 8.14809 81.9022 7.67609 82.6222 7.34009C83.3582 7.00409 84.1502 6.83609 84.9982 6.83609C85.8302 6.83609 86.5902 7.01209 87.2782 7.36409C87.9662 7.71609 88.5342 8.21209 88.9822 8.85209V1.89209H91.7422V19.7481H89.2222L89.1022 17.7321C88.6542 18.4681 88.0622 19.0521 87.3262 19.4841C86.5902 19.9001 85.7662 20.1081 84.8542 20.1081ZM85.4302 17.6121C86.1182 17.6121 86.7342 17.4361 87.2782 17.0841C87.8222 16.7161 88.2462 16.2201 88.5502 15.5961C88.8702 14.9721 89.0302 14.2681 89.0302 13.4841C89.0302 12.6841 88.8702 11.9721 88.5502 11.3481C88.2462 10.7241 87.8222 10.2361 87.2782 9.88409C86.7342 9.51609 86.1182 9.33209 85.4302 9.33209C84.7422 9.33209 84.1262 9.51609 83.5822 9.88409C83.0382 10.2361 82.6062 10.7241 82.2862 11.3481C81.9822 11.9721 81.8302 12.6841 81.8302 13.4841C81.8302 14.2681 81.9822 14.9721 82.2862 15.5961C82.6062 16.2201 83.0382 16.7161 83.5822 17.0841C84.1262 17.4361 84.7422 17.6121 85.4302 17.6121Z" fill="#20222A"/>
<path d="M100.546 20.1081C99.6182 20.1081 98.7622 19.9481 97.9782 19.6281C97.2103 19.2921 96.5382 18.8281 95.9622 18.2361C95.3863 17.6441 94.9382 16.9481 94.6182 16.1481C94.3142 15.3321 94.1622 14.4361 94.1622 13.4601C94.1622 12.5161 94.3142 11.6441 94.6182 10.8441C94.9382 10.0441 95.3703 9.34809 95.9143 8.75609C96.4743 8.14809 97.1302 7.67609 97.8822 7.34009C98.6342 7.00409 99.4503 6.83609 100.33 6.83609C101.21 6.83609 102.01 6.99609 102.73 7.31609C103.466 7.62009 104.098 8.06009 104.626 8.63609C105.17 9.21209 105.586 9.90009 105.874 10.7001C106.162 11.4841 106.306 12.3561 106.306 13.3161V14.1321H97.0182C97.0983 14.8681 97.2903 15.5081 97.5943 16.0521C97.9143 16.5801 98.3223 16.9881 98.8183 17.2761C99.3143 17.5641 99.8903 17.7081 100.546 17.7081C101.858 17.7081 102.882 17.1241 103.618 15.9561L106.042 16.8921C105.754 17.5481 105.33 18.1241 104.77 18.6201C104.226 19.1001 103.586 19.4681 102.85 19.7241C102.13 19.9801 101.362 20.1081 100.546 20.1081ZM100.33 9.06809C99.7703 9.06809 99.2663 9.19609 98.8183 9.45209C98.3863 9.70809 98.0182 10.0681 97.7142 10.5321C97.4102 10.9961 97.2022 11.5401 97.0902 12.1641H103.426C103.33 11.5401 103.146 10.9961 102.874 10.5321C102.602 10.0681 102.242 9.70809 101.794 9.45209C101.362 9.19609 100.874 9.06809 100.33 9.06809Z" fill="#20222A"/>
<path d="M108.66 19.7481V7.19609H111.18L111.3 9.26009C111.62 8.55609 112.06 8.01209 112.62 7.62809C113.196 7.22809 113.868 7.02809 114.636 7.02809C114.876 7.02809 115.108 7.04409 115.332 7.07609C115.556 7.10809 115.756 7.16409 115.932 7.24409L115.62 9.93209C115.444 9.86809 115.26 9.82809 115.068 9.81209C114.876 9.78009 114.684 9.76409 114.492 9.76409C113.532 9.76409 112.78 10.0841 112.236 10.7241C111.692 11.3641 111.42 12.2521 111.42 13.3881V19.7481H108.66Z" fill="#20222A"/>
</svg>
