<svg width="58" height="58" viewBox="0 0 58 58" fill="none" xmlns="http://www.w3.org/2000/svg">
<path d="M54.2009 28.1766C54.8051 27.7553 54.7618 26.8475 54.1204 26.4855L48.8179 23.4929C48.1765 23.1309 48.1332 22.2231 48.7374 21.8018L54.1969 17.9945C54.7997 17.5741 54.7583 16.6688 54.1196 16.3052L29.0227 2.01797C28.7159 1.84336 28.3399 1.84336 28.0332 2.01797L2.93627 16.3052C2.29756 16.6688 2.25614 17.5741 2.85899 17.9945L8.31846 21.8018C8.92263 22.2231 8.87941 23.1309 8.23796 23.4929L2.93557 26.4855C2.29411 26.8475 2.2509 27.7553 2.85506 28.1766L8.31846 31.9866C8.92263 32.4079 8.87941 33.3157 8.23795 33.6777L2.93557 36.6703C2.29411 37.0323 2.25089 37.9401 2.85505 38.3614L27.9559 55.8662C28.2996 56.1058 28.7563 56.1058 29.0999 55.8662L54.2009 38.3614C54.8051 37.9401 54.7618 37.0323 54.1204 36.6703L48.818 33.6777C48.1765 33.3157 48.1333 32.4079 48.7375 31.9866L54.2009 28.1766ZM47.8919 16.6015C48.5306 16.9651 48.572 17.8703 47.9692 18.2908L44.476 20.7269C44.1388 20.9621 43.6921 20.9669 43.3499 20.7392L40.4591 18.8155C39.8718 18.4246 39.863 17.5649 40.4421 17.162L43.7204 14.8817C44.0367 14.6616 44.4513 14.6429 44.7862 14.8335L47.8919 16.6015ZM24.441 22.6067C25.013 23.0046 25.013 23.8507 24.4411 24.2486L21.6028 26.2229C21.2592 26.4619 20.8031 26.4616 20.4597 26.2222L17.0172 23.8215C16.4362 23.4163 16.449 22.5523 17.0416 22.1644L19.9621 20.2535C20.3033 20.0302 20.7459 20.0365 21.0806 20.2693L24.441 22.6067ZM24.7387 18.77C24.1568 18.3653 24.1691 17.5004 24.7622 17.1123L27.809 15.1186C28.144 14.8994 28.5773 14.9011 28.9106 15.1229L32.1076 17.2504C32.6949 17.6412 32.7038 18.501 32.1247 18.9038L29.099 21.0085C28.7557 21.2473 28.3001 21.2473 27.9569 21.0086L24.7387 18.77ZM27.9569 25.8467C28.3001 25.6079 28.7557 25.6079 29.099 25.8467L31.9432 27.8251C32.5147 28.2227 32.5152 29.068 31.9441 29.4663L29.0999 31.4497C28.7563 31.6894 28.2996 31.6894 27.9559 31.4497L25.1117 29.4663C24.5407 29.068 24.5412 28.2227 25.1127 27.8251L27.9569 25.8467ZM32.6149 24.2484C32.043 23.8506 32.043 23.0044 32.6149 22.6066L35.7437 20.4303C36.0808 20.1958 36.5269 20.1912 36.8688 20.4187L39.7656 22.3464C40.3525 22.737 40.3619 23.5959 39.7836 23.9992L36.5962 26.222C36.2529 26.4614 35.7968 26.4617 35.4532 26.2227L32.6149 24.2484ZM39.6632 11.917C40.3023 12.2809 40.3432 13.187 39.7395 13.607L36.8232 15.6355C36.4861 15.87 36.0399 15.8745 35.6981 15.6471L32.6479 13.6172C32.0505 13.2196 32.0539 12.3409 32.6544 11.9479L35.4291 10.1322C35.743 9.92683 36.1454 9.91437 36.4714 10.1L39.6632 11.917ZM28.0332 5.85939C28.3399 5.68479 28.7159 5.68479 29.0227 5.85939L31.2703 7.13895C31.9202 7.50893 31.9489 8.4353 31.3231 8.84478L28.9274 10.4124C28.5925 10.6315 28.1591 10.6299 27.8259 10.4081L25.5883 8.91901C24.9685 8.50657 25.0006 7.58576 25.6476 7.21746L28.0332 5.85939ZM20.4683 10.1662C20.7967 9.97928 21.2024 9.99342 21.517 10.2028L24.0884 11.9139C24.6858 12.3114 24.6824 13.1903 24.0819 13.5832L21.1426 15.5064C20.8014 15.7297 20.3588 15.7234 20.0241 15.4905L17.3163 13.6071C16.7125 13.1871 16.7534 12.2809 17.3926 11.9171L20.4683 10.1662ZM9.08662 18.2907C8.48377 17.8703 8.52517 16.965 9.16388 16.6014L12.2695 14.8334C12.6043 14.6428 13.0189 14.6615 13.3352 14.8815L16.3658 16.9895C16.9477 17.3942 16.9355 18.2591 16.3424 18.6472L13.4282 20.5541C13.0866 20.7776 12.6435 20.7711 12.3087 20.5376L9.08662 18.2907ZM9.1012 28.4858C8.49704 28.0645 8.54025 27.1568 9.1817 26.7947L12.114 25.1398C12.4488 24.9508 12.8622 24.9705 13.1775 25.1904L27.9559 35.4965C28.2996 35.7362 28.7563 35.7362 29.0999 35.4965L43.8784 25.1904C44.1937 24.9705 44.6072 24.9508 44.942 25.1398L47.8743 26.7947C48.5157 27.1568 48.5589 28.0645 47.9548 28.4858L29.0999 41.6347C28.7563 41.8743 28.2996 41.8743 27.9559 41.6347L9.1012 28.4858ZM47.8742 36.9795C48.5156 37.3416 48.5588 38.2493 47.9547 38.6706L29.0999 51.8195C28.7563 52.0591 28.2996 52.0591 27.9559 51.8195L9.1012 38.6707C8.49704 38.2493 8.54025 37.3416 9.1817 36.9795L12.114 35.3246C12.4488 35.1356 12.8622 35.1553 13.1775 35.3752L27.9559 45.6813C28.2996 45.921 28.7563 45.921 29.0999 45.6813L43.8784 35.3752C44.1937 35.1553 44.6072 35.1356 44.942 35.3246L47.8742 36.9795Z" fill="#52A875"/>
</svg>
