<svg width="57" height="57" viewBox="0 0 57 57" fill="none" xmlns="http://www.w3.org/2000/svg">
<path d="M41.8952 22.3023C41.9486 21.7072 41.9886 21.1083 41.9886 20.4998C41.9886 9.19626 32.5705 0 20.9943 0C9.4181 0 0 9.19626 0 20.4998C0 31.5927 9.07609 40.6341 20.3552 40.968V50.0653C20.3552 54.4543 29.6739 56.8219 38.4422 56.8219C47.2105 56.8219 56.5292 54.4543 56.5292 50.0653V28.9465C56.5292 25.0004 49.2541 22.7872 41.8952 22.3023ZM54.3368 43.3078C54.3368 45.2353 48.2897 47.9238 38.4422 47.9238C28.5941 47.9238 22.5476 45.2353 22.5476 43.3078V40.9231C23.5402 40.8516 24.5152 40.7229 25.4651 40.5209C25.5106 40.546 25.5451 40.5835 25.5953 40.6025C28.9142 41.8663 33.6527 42.5918 38.5962 42.5918C44.7145 42.5918 51.0886 41.4144 54.3368 39.1896V43.3078ZM54.3368 35.8351C54.3368 37.7626 48.3484 40.451 38.5962 40.451C35.1386 40.451 31.8114 40.0823 29.0674 39.4187C31.3324 38.4936 33.3831 37.1787 35.1652 35.5809C36.2904 35.6577 37.4392 35.7035 38.5962 35.7035C44.7145 35.7035 51.0886 34.5261 54.3368 32.3013V35.8351ZM54.3368 28.9468C54.3368 30.8743 48.3484 33.5627 38.5962 33.5627C38.1238 33.5627 37.654 33.5494 37.1852 33.5357C39.3698 30.9532 40.9114 27.8385 41.5926 24.4267C49.9058 24.9423 54.3368 27.3678 54.3368 28.9468ZM2.19236 20.4998C2.19236 10.3763 10.6266 2.14072 20.9943 2.14072C31.362 2.14072 39.7963 10.3763 39.7963 20.4998C39.7963 30.6233 31.362 38.8589 20.9943 38.8589C10.6266 38.8589 2.19236 30.6233 2.19236 20.4998ZM38.4422 54.6815C28.5941 54.6815 22.5476 51.993 22.5476 50.0655V46.6487C25.8172 48.882 32.2589 50.0645 38.4422 50.0645C44.6255 50.0645 51.0672 48.882 54.3368 46.6487V50.0655C54.3368 51.993 48.2897 54.6815 38.4422 54.6815Z" fill="#52A875"/>
<path d="M37.2582 20.6395C37.2582 12.0689 29.8624 5.09668 20.7717 5.09668C11.6809 5.09668 4.28516 12.0691 4.28516 20.6395C4.28516 29.2099 11.6809 36.1824 20.7717 36.1824C29.8624 36.1824 37.2582 29.2102 37.2582 20.6395ZM6.54822 20.6395C6.54822 13.2451 12.9289 7.23048 20.7714 7.23048C28.6139 7.23048 34.9946 13.2454 34.9946 20.6395C34.9946 28.0337 28.6139 34.0486 20.7714 34.0486C12.9289 34.0486 6.54822 28.0339 6.54822 20.6395Z" fill="#52A875"/>
<path d="M15.6309 13.3853V27.9724H21.1978C25.2259 27.9724 28.4913 24.7069 28.4913 20.6788C28.4913 16.6507 25.2259 13.3853 21.1978 13.3853H15.6309Z" stroke="#52A875" stroke-width="1.8" stroke-linecap="round" stroke-linejoin="round"/>
<line x1="12.2438" y1="18.7367" x2="31.8779" y2="18.7367" stroke="#52A875" stroke-width="1.8" stroke-linecap="round" stroke-linejoin="round"/>
<line x1="12.2438" y1="22.9047" x2="31.8779" y2="22.9047" stroke="#52A875" stroke-width="1.8" stroke-linecap="round" stroke-linejoin="round"/>
</svg>
