<svg width="58" height="57" viewBox="0 0 58 57" fill="none" xmlns="http://www.w3.org/2000/svg">
<path d="M25.2469 7.73363H30.6422C31.1389 7.73363 31.5415 7.30084 31.5415 6.76696C31.5415 6.23308 31.1389 5.80029 30.6422 5.80029H25.2469C24.7503 5.80029 24.3477 6.23308 24.3477 6.76696C24.3477 7.30084 24.7503 7.73363 25.2469 7.73363Z" fill="#52A875"/>
<path d="M40.534 7.73363H50.4255C50.9221 7.73363 51.3247 7.30084 51.3247 6.76696C51.3247 6.23308 50.9221 5.80029 50.4255 5.80029H40.534C40.0374 5.80029 39.6348 6.23308 39.6348 6.76696C39.6348 7.30084 40.0374 7.73363 40.534 7.73363Z" fill="#52A875"/>
<path d="M50.4261 1.93359H5.46487C2.98297 1.93679 0.971723 4.09888 0.96875 6.76693V43.5003C0.971723 46.1683 2.98297 48.3304 5.46487 48.3336H13.5651C16.9533 53.2011 22.2776 56.0669 27.9329 56.0669C33.5882 56.0669 38.9126 53.2011 42.3007 48.3336H50.4261C52.908 48.3304 54.9193 46.1683 54.9222 43.5003V6.76693C54.9193 4.09888 52.908 1.93679 50.4261 1.93359ZM5.46487 3.86693H50.4261C51.916 3.86693 53.1238 5.1653 53.1238 6.76693V9.66693H2.7672V6.76693C2.7672 5.1653 3.97499 3.86693 5.46487 3.86693ZM27.9455 54.1336C22.7685 54.12 17.9066 51.4581 14.8519 46.9648C14.6231 46.6352 14.6134 46.1861 14.8276 45.8454C14.8483 45.8222 14.8699 45.7971 14.8888 45.7729C15.0529 45.5522 15.3021 45.4246 15.565 45.4268H15.5883C15.8861 45.4375 16.1623 45.5965 16.3356 45.857C16.8746 46.6464 17.4825 47.3786 18.1511 48.0436L18.1673 48.0591C23.6711 53.5786 32.2089 53.5811 37.7156 48.0649C37.7264 48.0542 37.7372 48.0436 37.747 48.032C39.6953 46.0923 41.1038 43.6087 41.8151 40.8584C41.8902 40.5673 41.8343 40.2553 41.6642 40.0149C41.4941 39.7746 41.2292 39.6335 40.9483 39.6336H39.6696L39.6561 39.4818L42.084 36.3015C42.1025 36.2775 42.1196 36.2523 42.1353 36.2261L43.2476 34.8119L46.8085 39.4809L47.5036 38.868L46.8004 39.6317H44.6423C44.2184 39.6321 43.8524 39.9507 43.7638 40.3963C42.1376 48.3948 35.5616 54.1058 27.9455 54.1336ZM21.5214 48.3336H34.4091C30.4478 50.9113 25.4827 50.9113 21.5214 48.3336ZM50.4261 46.4003H43.5021C44.3252 44.8887 44.9503 43.2622 45.3599 41.5669H46.7986C47.5058 41.5669 48.1485 41.1251 48.4451 40.435C48.7679 39.7208 48.6738 38.8699 48.2041 38.2571L44.6432 33.5881C44.2995 33.135 43.7843 32.8723 43.2404 32.8727C42.697 32.872 42.1819 33.1331 41.8367 33.5842L40.7028 35.0651C40.6821 35.0932 40.6623 35.1212 40.6444 35.1512L38.2722 38.26C37.805 38.8733 37.7116 39.7224 38.033 40.4359C38.3288 41.1226 38.9674 41.5635 39.6714 41.5669H39.7074C39.0553 43.39 38.0429 45.0391 36.7399 46.4003H19.1772C18.67 45.8813 18.2041 45.3177 17.7843 44.7154C17.2844 43.9706 16.49 43.5191 15.636 43.4945C14.8403 43.4644 14.0752 43.826 13.5579 44.4766C13.5372 44.4988 13.5156 44.524 13.4968 44.5481C13.0989 45.0703 12.883 45.7253 12.8862 46.4003H5.46487C3.97499 46.4003 2.7672 45.1019 2.7672 43.5003V11.6003H53.1238V43.5003C53.1238 45.1019 51.916 46.4003 50.4261 46.4003Z" fill="#52A875"/>
<path d="M5.46563 7.73363C5.96226 7.73363 6.36486 7.30084 6.36486 6.76696C6.36486 6.23308 5.96226 5.80029 5.46563 5.80029C4.969 5.80029 4.56641 6.23308 4.56641 6.76696C4.56641 7.30084 4.969 7.73363 5.46563 7.73363Z" fill="#52A875"/>
<path d="M9.06134 7.73363C9.55796 7.73363 9.96056 7.30084 9.96056 6.76696C9.96056 6.23308 9.55796 5.80029 9.06134 5.80029C8.56471 5.80029 8.16211 6.23308 8.16211 6.76696C8.16211 7.30084 8.56471 7.73363 9.06134 7.73363Z" fill="#52A875"/>
<path d="M12.659 7.73363C13.1556 7.73363 13.5582 7.30084 13.5582 6.76696C13.5582 6.23308 13.1556 5.80029 12.659 5.80029C12.1624 5.80029 11.7598 6.23308 11.7598 6.76696C11.7598 7.30084 12.1624 7.73363 12.659 7.73363Z" fill="#52A875"/>
<path d="M27.945 17.4001C19.3843 17.3581 11.9958 23.8419 10.3202 32.8668H9.09724C8.39034 32.8668 7.74782 33.3082 7.45076 33.9978C7.1292 34.7125 7.22327 35.5629 7.69176 36.1766L11.2527 40.8466C11.598 41.299 12.1138 41.5612 12.6582 41.5612C13.2026 41.5612 13.7183 41.299 14.0637 40.8466L17.6264 36.1747C18.0936 35.5614 18.1869 34.7122 17.8656 33.9987C17.5688 33.3088 16.9262 32.867 16.2191 32.8668H15.8774C17.2704 27.846 21.234 24.1406 26.0526 23.3545C30.8713 22.5685 35.679 24.8429 38.3949 29.1934C38.8759 29.9733 39.6745 30.4593 40.544 30.5013C41.3833 30.5484 42.193 30.1615 42.7229 29.4602L42.7273 29.4544L42.7318 29.4477C43.4893 28.4611 43.5526 27.0564 42.8874 25.9957C39.5609 20.6202 33.9509 17.3931 27.945 17.4001ZM41.3372 28.2268C41.1668 28.4585 40.9019 28.5862 40.6277 28.569C40.3264 28.5528 40.0505 28.3825 39.8858 28.1108C36.6522 22.935 30.8438 20.3524 25.154 21.5606C19.4641 22.7687 15.0053 27.5313 13.8452 33.6401C13.7911 33.9246 13.8589 34.22 14.0297 34.4449C14.2005 34.6697 14.4563 34.8002 14.7264 34.8001H16.2209L16.2344 34.9528L12.6429 39.6218L9.08196 34.9528L8.38686 35.5657L9.09724 34.8001H11.0755C11.5178 34.8003 11.8945 34.4547 11.964 33.9852C13.0121 26.919 17.9797 21.2642 24.4823 19.7355C30.9849 18.2067 37.6948 21.116 41.3911 27.0668C41.6105 27.4217 41.5901 27.8887 41.3407 28.22L42.0367 28.8329L41.3372 28.2268Z" fill="#52A875"/>
<path d="M5.46563 16.4338H7.26408C7.76071 16.4338 8.16331 16.001 8.16331 15.4672C8.16331 14.9333 7.76071 14.5005 7.26408 14.5005H5.46563C4.969 14.5005 4.56641 14.9333 4.56641 15.4672C4.56641 16.001 4.969 16.4338 5.46563 16.4338Z" fill="#52A875"/>
<path d="M10.8602 16.4338H18.9532C19.4498 16.4338 19.8524 16.001 19.8524 15.4672C19.8524 14.9333 19.4498 14.5005 18.9532 14.5005H10.8602C10.3635 14.5005 9.96094 14.9333 9.96094 15.4672C9.96094 16.001 10.3635 16.4338 10.8602 16.4338Z" fill="#52A875"/>
<path d="M13.5587 19.3339C13.5587 18.8 13.1561 18.3672 12.6594 18.3672H5.46563C4.969 18.3672 4.56641 18.8 4.56641 19.3339C4.56641 19.8677 4.969 20.3005 5.46563 20.3005H12.6594C13.1561 20.3005 13.5587 19.8677 13.5587 19.3339Z" fill="#52A875"/>
<path d="M50.4262 14.5005H48.6277C48.1311 14.5005 47.7285 14.9333 47.7285 15.4672C47.7285 16.001 48.1311 16.4338 48.6277 16.4338H50.4262C50.9228 16.4338 51.3254 16.001 51.3254 15.4672C51.3254 14.9333 50.9228 14.5005 50.4262 14.5005Z" fill="#52A875"/>
<path d="M36.9383 16.4338H45.0313C45.5279 16.4338 45.9305 16.001 45.9305 15.4672C45.9305 14.9333 45.5279 14.5005 45.0313 14.5005H36.9383C36.4417 14.5005 36.0391 14.9333 36.0391 15.4672C36.0391 16.001 36.4417 16.4338 36.9383 16.4338Z" fill="#52A875"/>
<path d="M50.427 18.3672H43.2332C42.7366 18.3672 42.334 18.8 42.334 19.3339C42.334 19.8677 42.7366 20.3005 43.2332 20.3005H50.427C50.9236 20.3005 51.3262 19.8677 51.3262 19.3339C51.3262 18.8 50.9236 18.3672 50.427 18.3672Z" fill="#52A875"/>
</svg>
